# xmcd
#
# Track frame offsets: 
#        150
#        10650
#        22006
#        40581
#        53796
#        70741
#        88187
#        106589
#        122851
#        130836
#        142409
#        157192
#        168663
#        183906
#        206058
#
# Disc length: 2898 seconds
#
# Revision: 0
# Processed by: cddbd v1.5.2PL0 Copyright (c) Steve Scherf et al.
# Submitted via: ExactAudioCopy v0.99pb5
#
DISCID=d30b500f
DTITLE=Евгений Дятлов - Серебрянное Кольцо CD2
DYEAR=1999
DGENRE=Folk
TTITLE0=Как Вечор
TTITLE1=Канареечка
TTITLE2=Вечерний Звон
TTITLE3=Только Раз
TTITLE4=За Гитарный Перебор
TTITLE5=Капризная , Упрямая
TTITLE6=Караван
TTITLE7=Нищая
TTITLE8=09
TTITLE9=10
TTITLE10=11
TTITLE11=12
TTITLE12=13
TTITLE13=14
TTITLE14=15
EXTD=
EXTT0=
EXTT1=
EXTT2=
EXTT3=
EXTT4=
EXTT5=
EXTT6=
EXTT7=
EXTT8=
EXTT9=
EXTT10=
EXTT11=
EXTT12=
EXTT13=
EXTT14=
PLAYORDER=
